<mxfile host="app.diagrams.net" modified="2022-09-20T03:22:01.842Z" agent="5.0 (Windows NT 10.0; Win64; x64) AppleWebKit/537.36 (KHTML, like Gecko) Chrome/105.0.0.0 Safari/537.36" etag="7QfhToTssHcONym3IBT3" version="20.3.0" type="github">
  <diagram name="Page-1" id="74e2e168-ea6b-b213-b513-2b3c1d86103e">
    <mxGraphModel dx="1662" dy="762" grid="1" gridSize="10" guides="1" tooltips="1" connect="1" arrows="1" fold="1" page="1" pageScale="1" pageWidth="1100" pageHeight="850" background="none" math="0" shadow="0">
      <root>
        <mxCell id="0" />
        <mxCell id="1" parent="0" />
        <mxCell id="77e6c97f196da883-1" value="Pool" style="swimlane;html=1;childLayout=stackLayout;startSize=20;rounded=0;shadow=0;labelBackgroundColor=none;strokeWidth=1;fontFamily=Verdana;fontSize=8;align=center;" parent="1" vertex="1">
          <mxGeometry x="70" y="40" width="800" height="910" as="geometry">
            <mxRectangle x="70" y="40" width="70" height="30" as="alternateBounds" />
          </mxGeometry>
        </mxCell>
        <mxCell id="77e6c97f196da883-28" style="edgeStyle=orthogonalEdgeStyle;rounded=1;html=1;labelBackgroundColor=none;startArrow=none;startFill=0;startSize=5;endArrow=classicThin;endFill=1;endSize=5;jettySize=auto;orthogonalLoop=1;strokeWidth=1;fontFamily=Verdana;fontSize=8" parent="77e6c97f196da883-1" source="77e6c97f196da883-9" target="77e6c97f196da883-11" edge="1">
          <mxGeometry relative="1" as="geometry">
            <mxPoint x="350" y="205" as="targetPoint" />
          </mxGeometry>
        </mxCell>
        <mxCell id="77e6c97f196da883-2" value="会员" style="swimlane;html=1;startSize=20;" parent="77e6c97f196da883-1" vertex="1">
          <mxGeometry y="20" width="290" height="890" as="geometry" />
        </mxCell>
        <mxCell id="Sf8l0cbuQewU0bmxSOPo-6" style="edgeStyle=orthogonalEdgeStyle;rounded=0;orthogonalLoop=1;jettySize=auto;html=1;exitX=0.5;exitY=1;exitDx=0;exitDy=0;" edge="1" parent="77e6c97f196da883-2" source="77e6c97f196da883-8" target="77e6c97f196da883-9">
          <mxGeometry relative="1" as="geometry" />
        </mxCell>
        <mxCell id="77e6c97f196da883-8" value="操作" style="rounded=1;whiteSpace=wrap;html=1;shadow=0;labelBackgroundColor=none;strokeWidth=1;fontFamily=Verdana;fontSize=8;align=center;" parent="77e6c97f196da883-2" vertex="1">
          <mxGeometry x="95" y="80" width="100" height="60" as="geometry" />
        </mxCell>
        <mxCell id="77e6c97f196da883-9" value="生成流水数据&lt;br&gt;（t_order_pay_list_xx,&lt;br&gt;t_member_recharge_record_xx,&lt;br&gt;t_card_shop_order_xx,&lt;br&gt;t_card_recharge_record_xx）" style="rounded=1;whiteSpace=wrap;html=1;shadow=0;labelBackgroundColor=none;strokeWidth=1;fontFamily=Verdana;fontSize=8;align=center;" parent="77e6c97f196da883-2" vertex="1">
          <mxGeometry x="40" y="180" width="210" height="90" as="geometry" />
        </mxCell>
        <mxCell id="Sf8l0cbuQewU0bmxSOPo-10" style="edgeStyle=orthogonalEdgeStyle;rounded=0;orthogonalLoop=1;jettySize=auto;html=1;exitX=0.5;exitY=1;exitDx=0;exitDy=0;entryX=0.5;entryY=0;entryDx=0;entryDy=0;" edge="1" parent="77e6c97f196da883-2" source="77e6c97f196da883-10" target="Sf8l0cbuQewU0bmxSOPo-9">
          <mxGeometry relative="1" as="geometry" />
        </mxCell>
        <mxCell id="77e6c97f196da883-10" value="监听kafka事件" style="rounded=1;whiteSpace=wrap;html=1;shadow=0;labelBackgroundColor=none;strokeWidth=1;fontFamily=Verdana;fontSize=8;align=center;" parent="77e6c97f196da883-2" vertex="1">
          <mxGeometry x="90" y="300" width="100" height="60" as="geometry" />
        </mxCell>
        <mxCell id="Sf8l0cbuQewU0bmxSOPo-13" style="edgeStyle=orthogonalEdgeStyle;rounded=0;orthogonalLoop=1;jettySize=auto;html=1;exitX=0.5;exitY=1;exitDx=0;exitDy=0;entryX=0.5;entryY=0;entryDx=0;entryDy=0;" edge="1" parent="77e6c97f196da883-2" source="Sf8l0cbuQewU0bmxSOPo-9" target="Sf8l0cbuQewU0bmxSOPo-12">
          <mxGeometry relative="1" as="geometry" />
        </mxCell>
        <mxCell id="Sf8l0cbuQewU0bmxSOPo-9" value="数据过滤和组装(&lt;br&gt;1、重复数据消费过滤，&lt;br&gt;2、只推送储值和退款流水&lt;br&gt;3、只推送支付类型为微信，支付宝，现金，银联的流水&lt;br&gt;4、只推送云帆商户产生的流水)" style="rounded=1;whiteSpace=wrap;html=1;" vertex="1" parent="77e6c97f196da883-2">
          <mxGeometry x="27.5" y="395" width="225" height="100" as="geometry" />
        </mxCell>
        <mxCell id="Sf8l0cbuQewU0bmxSOPo-12" value="数据发送" style="rounded=1;whiteSpace=wrap;html=1;" vertex="1" parent="77e6c97f196da883-2">
          <mxGeometry x="80" y="540" width="120" height="60" as="geometry" />
        </mxCell>
        <mxCell id="77e6c97f196da883-3" value="kafka中间件" style="swimlane;html=1;startSize=20;" parent="77e6c97f196da883-1" vertex="1">
          <mxGeometry x="290" y="20" width="280" height="890" as="geometry" />
        </mxCell>
        <mxCell id="77e6c97f196da883-11" value="事件监听（主要监听t_member_recharge_record_xx,&lt;br&gt;和t_card_recharge_record_xx）" style="rounded=1;whiteSpace=wrap;html=1;shadow=0;labelBackgroundColor=none;strokeWidth=1;fontFamily=Verdana;fontSize=8;align=center;" parent="77e6c97f196da883-3" vertex="1">
          <mxGeometry x="27.5" y="190" width="225" height="70" as="geometry" />
        </mxCell>
        <mxCell id="77e6c97f196da883-4" value="云帆" style="swimlane;html=1;startSize=20;" parent="77e6c97f196da883-1" vertex="1">
          <mxGeometry x="570" y="20" width="230" height="890" as="geometry" />
        </mxCell>
        <mxCell id="Sf8l0cbuQewU0bmxSOPo-18" style="edgeStyle=orthogonalEdgeStyle;rounded=0;orthogonalLoop=1;jettySize=auto;html=1;exitX=0.5;exitY=1;exitDx=0;exitDy=0;entryX=0.5;entryY=0;entryDx=0;entryDy=0;" edge="1" parent="77e6c97f196da883-4" source="Sf8l0cbuQewU0bmxSOPo-15" target="Sf8l0cbuQewU0bmxSOPo-16">
          <mxGeometry relative="1" as="geometry" />
        </mxCell>
        <mxCell id="Sf8l0cbuQewU0bmxSOPo-15" value="接受数据" style="rounded=1;whiteSpace=wrap;html=1;" vertex="1" parent="77e6c97f196da883-4">
          <mxGeometry x="60" y="540" width="120" height="60" as="geometry" />
        </mxCell>
        <mxCell id="Sf8l0cbuQewU0bmxSOPo-19" style="edgeStyle=orthogonalEdgeStyle;rounded=0;orthogonalLoop=1;jettySize=auto;html=1;exitX=0.5;exitY=1;exitDx=0;exitDy=0;entryX=0.5;entryY=0;entryDx=0;entryDy=0;" edge="1" parent="77e6c97f196da883-4" source="Sf8l0cbuQewU0bmxSOPo-16" target="Sf8l0cbuQewU0bmxSOPo-17">
          <mxGeometry relative="1" as="geometry" />
        </mxCell>
        <mxCell id="Sf8l0cbuQewU0bmxSOPo-16" value="数据校验（&lt;br&gt;1、重复消费校验&lt;br&gt;2、失败重试落库...）" style="rounded=1;whiteSpace=wrap;html=1;" vertex="1" parent="77e6c97f196da883-4">
          <mxGeometry x="60" y="620" width="120" height="60" as="geometry" />
        </mxCell>
        <mxCell id="Sf8l0cbuQewU0bmxSOPo-17" value="数据落地" style="rounded=1;whiteSpace=wrap;html=1;" vertex="1" parent="77e6c97f196da883-4">
          <mxGeometry x="60" y="710" width="120" height="60" as="geometry" />
        </mxCell>
        <mxCell id="Sf8l0cbuQewU0bmxSOPo-8" style="edgeStyle=orthogonalEdgeStyle;rounded=0;orthogonalLoop=1;jettySize=auto;html=1;exitX=0.5;exitY=1;exitDx=0;exitDy=0;entryX=1;entryY=0.5;entryDx=0;entryDy=0;" edge="1" parent="77e6c97f196da883-1" source="77e6c97f196da883-11" target="77e6c97f196da883-10">
          <mxGeometry relative="1" as="geometry" />
        </mxCell>
        <mxCell id="Sf8l0cbuQewU0bmxSOPo-14" style="edgeStyle=orthogonalEdgeStyle;rounded=0;orthogonalLoop=1;jettySize=auto;html=1;exitX=1;exitY=0.5;exitDx=0;exitDy=0;entryX=0;entryY=0.5;entryDx=0;entryDy=0;" edge="1" parent="77e6c97f196da883-1" source="Sf8l0cbuQewU0bmxSOPo-12" target="Sf8l0cbuQewU0bmxSOPo-15">
          <mxGeometry relative="1" as="geometry">
            <mxPoint x="630" y="660" as="targetPoint" />
          </mxGeometry>
        </mxCell>
      </root>
    </mxGraphModel>
  </diagram>
</mxfile>
